<svg xmlns="http://www.w3.org/2000/svg" width="512" height="512" style="" viewBox="0 0 512 512">
  <defs>
    <radialGradient id="go_el7hgn8ce_129" x1="0%" y1="50%" x2="100%" y2="50%">
      <stop offset="0%" style="stop-color: rgb(0, 0, 0); stop-opacity: 1;" />
      <stop offset="100%" style="stop-color: rgb(0, 0, 0); stop-opacity: 1;" />
    </radialGradient>
  </defs>
  <path text="Factually" fill="#333747" space="preserve" text-anchor="start" offset="0" font-scale="contain" font-size="48" font-family="Orelega One" transform="matrix(1.2622667597267283, 0, 0, 1.2622667597267283, 199.10068920867826, 247.68523444843834)" data-fl-textpath="" font-weight="400" font-style="normal" d="M 12.66-3.75L 19.22-3.75L 19.22 0L 1.41 0L 1.41-3.75L 5.16-3.75L 5.16-25.31L 1.41-25.31L 1.41-29.06L 26.72-29.06L 26.72-19.69L 22.5-19.69L 22.5-21.56Q 22.5-22.14  22.4-22.75Q 22.3-23.36  22.1-23.95Q 21.89-24.55  21.5-24.93Q 21.12-25.31  20.63-25.31L 20.63-25.31L 12.66-25.31L 12.66-15L 16.88-15L 16.88-19.22L 20.63-19.22L 20.63-7.03L 16.88-7.03L 16.88-11.25L 12.66-11.25L 12.66-3.75ZM 47.34-14.12L 47.34-14.12L 47.34-3.75L 49.69-3.75L 49.69 0L 42.39 0L 41.34-2.44Q 40.15-0.73  38.57-0.09Q 37 0.54  34.17 0.54L 34.17 0.54Q 32.71 0.54  31.45 0.03Q 30.19-0.48  29.3-1.36Q 28.42-2.24  27.92-3.47Q 27.42-4.7  27.42-6.11L 27.42-6.11Q 27.42-8.53  29.32-10.13Q 31.22-11.73  34.17-11.73L 34.17-11.73Q 36.55-11.73  38.11-11.28Q 39.67-10.83  40.78-9.84L 40.78-9.84L 40.78-14.81Q 40.78-15.87  40.49-16.58Q 40.21-17.29  39.63-17.67Q 39.06-18.05  38.34-18.2Q 37.63-18.35  36.63-18.35L 36.63-18.35Q 35.84-18.35  35.19-18.01L 35.19-18.01Q 35.55-17.25  35.55-16.41L 35.55-16.41Q 35.55-14.85  34.46-13.75Q 33.36-12.66  31.8-12.66Q 30.25-12.66  29.15-13.75Q 28.05-14.85  28.05-16.41L 28.05-16.41Q 28.05-17.2  28.37-17.91Q 28.68-18.61  29.23-19.14L 29.23-19.14Q 29.7-19.63  30.2-20.02Q 30.7-20.41  31.47-20.81Q 32.24-21.2  33.14-21.46Q 34.04-21.71  35.3-21.87Q 36.56-22.03  38.06-22.03L 38.06-22.03Q 40.01-22.03  41.72-21.46Q 43.43-20.88  44.67-19.86Q 45.91-18.84  46.629999999999995-17.36Q 47.34-15.87  47.34-14.12ZM 40.78-5.2L 40.78-5.2L 40.78-6.82Q 40.05-7.51  39.15-7.99Q 38.24-8.46  37.46-8.46L 37.46-8.46Q 35.8-8.46  35.12-7.9Q 34.44-7.35  34.44-6.11L 34.44-6.11Q 34.44-4.62  35.03-3.91Q 35.61-3.21  37.21-3.21L 37.21-3.21Q 38.11-3.21  39.09-3.79Q 40.07-4.37  40.78-5.2ZM 66.471875-17.45L 66.471875-17.45Q 65.13187500000001-18.28  63.071875-18.28L 63.071875-18.28Q 62.241875-18.28  61.521875-18.05Q 60.811875-17.82  60.161875-17.27Q 59.511875-16.72  59.051875-15.88Q 58.591875-15.04  58.321875-13.73Q 58.051875-12.43  58.051875-10.78Q 58.051875-9.13  58.351875-7.84Q 58.641875-6.55  59.131875-5.73Q 59.611875-4.91  60.301875-4.38Q 60.981875-3.86  61.711875-3.64Q 62.441874999999996-3.42  63.281875-3.42L 63.281875-3.42Q 65.751875-3.42  67.141875-4.38Q 68.531875-5.33  69.361875-7.32L 69.361875-7.32L 72.481875-6.25Q 72.061875-5.11  71.411875-4.11Q 70.761875-3.11  69.841875-2.26Q 68.931875-1.42  67.811875-0.81Q 66.691875-0.21  65.281875 0.13Q 63.881875 0.47  62.321875 0.47L 62.321875 0.47Q 60.011875 0.47  57.951875-0.34Q 55.901875000000004-1.15  54.381875-2.6Q 52.861875-4.04  51.981875-6.16Q 51.091875-8.29  51.091875-10.78L 51.091875-10.78Q 51.091875-12.79  51.651875-14.55Q 52.221875-16.32  53.241875-17.68Q 54.271875-19.04  55.651875000000004-20.03Q 57.031875-21.01  58.721875-21.52Q 60.411875-22.03  62.261875-22.03L 62.261875-22.03Q 63.721875-22.03  65.011875-21.76Q 66.301875-21.48  67.321875-21.01Q 68.331875-20.53  69.21187499999999-19.83Q 70.091875-19.13  70.751875-18.33Q 71.411875-17.54  71.991875-16.56L 71.991875-16.56Q 72.581875-15.63  72.581875-14.53L 72.581875-14.53Q 72.581875-12.97  71.491875-11.88Q 70.391875-10.78  68.831875-10.78Q 67.281875-10.78  66.181875-11.88Q 65.081875-12.97  65.081875-14.53L 65.081875-14.53Q 65.081875-15.4  65.451875-16.16Q 65.821875-16.92  66.471875-17.45ZM 81.2578125-26.25L 81.2578125-26.25L 83.5978125-26.25L 83.5978125-21.56L 90.1678125-21.56L 90.1678125-17.81L 83.5978125-17.81L 83.5978125-5.63Q 83.5978125-4.83  84.04781249999999-4.29Q 84.5078125-3.75  85.4778125-3.75L 85.4778125-3.75Q 86.5678125-3.75  87.3278125-4.47Q 88.0878125-5.19  88.2878125-6.56L 88.2878125-6.56L 91.0978125-6.09Q 90.9278125-4.72  90.4278125-3.56Q 89.9278125-2.39  89.1378125-1.48Q 88.3378125-0.57  87.1578125-0.05Q 85.9778125 0.47  84.5378125 0.47L 84.5378125 0.47Q 81.0378125 0.47  79.0378125-1.17Q 77.0378125-2.8  77.0378125-5.63L 77.0378125-5.63L 77.0378125-17.81L 74.6978125-17.81L 74.6978125-21.56L 75.1678125-21.56Q 76.9678125-21.56  78.3478125-22.59Q 79.7378125-23.63  81.2578125-26.25ZM 92.9790625-17.81L 92.9790625-21.56L 101.8790625-21.56L 101.8790625-8.44Q 101.8790625-6.59  102.2190625-5.55Q 102.5490625-4.52  103.1790625-4.14Q 103.8090625-3.75  104.8790625-3.75L 104.8790625-3.75Q 105.8690625-3.75  106.9090625-4.58Q 107.9390625-5.41  108.8690625-6.9L 108.8690625-6.9L 108.9190625-17.81L 106.5690625-17.81L 106.5690625-21.56L 115.4790625-21.56L 115.4790625-3.75L 117.8190625-3.75L 117.8190625 0L 110.5390625 0L 108.8990625-3.19Q 106.9190625 0.47  102.3490625 0.47L 102.3490625 0.47Q 100.7090625 0.47  99.4790625 0.02Q 98.2490625-0.42  97.4690625-1.2Q 96.6790625-1.98  96.1890625-3.18Q 95.7090625-4.38  95.5090625-5.76Q 95.3190625-7.14  95.3190625-8.91L 95.3190625-8.91L 95.3190625-17.81L 92.9790625-17.81ZM 139.8478125-14.12L 139.8478125-14.12L 139.8478125-3.75L 142.1978125-3.75L 142.1978125 0L 134.8978125 0L 133.8478125-2.44Q 132.6578125-0.73  131.0778125-0.09Q 129.5078125 0.54  126.6778125 0.54L 126.6778125 0.54Q 125.2178125 0.54  123.9578125 0.03Q 122.6978125-0.48  121.8078125-1.36Q 120.9278125-2.24  120.4278125-3.47Q 119.9278125-4.7  119.9278125-6.11L 119.9278125-6.11Q 119.9278125-8.53  121.8278125-10.13Q 123.7278125-11.73  126.6778125-11.73L 126.6778125-11.73Q 129.0578125-11.73  130.6178125-11.28Q 132.1778125-10.83  133.2878125-9.84L 133.2878125-9.84L 133.2878125-14.81Q 133.2878125-15.87  132.9978125-16.58Q 132.7178125-17.29  132.1378125-17.67Q 131.5678125-18.05  130.8478125-18.2Q 130.1378125-18.35  129.1378125-18.35L 129.1378125-18.35Q 128.3478125-18.35  127.6978125-18.01L 127.6978125-18.01Q 128.0578125-17.25  128.0578125-16.41L 128.0578125-16.41Q 128.0578125-14.85  126.96781250000001-13.75Q 125.8678125-12.66  124.3078125-12.66Q 122.7578125-12.66  121.6578125-13.75Q 120.5578125-14.85  120.5578125-16.41L 120.5578125-16.41Q 120.5578125-17.2  120.8778125-17.91Q 121.1878125-18.61  121.7378125-19.14L 121.7378125-19.14Q 122.2078125-19.63  122.7078125-20.02Q 123.2078125-20.41  123.9778125-20.81Q 124.7478125-21.2  125.6478125-21.46Q 126.5478125-21.71  127.8078125-21.87Q 129.0678125-22.03  130.5678125-22.03L 130.5678125-22.03Q 132.5178125-22.03  134.2278125-21.46Q 135.9378125-20.88  137.17781250000002-19.86Q 138.4178125-18.84  139.1378125-17.36Q 139.8478125-15.87  139.8478125-14.12ZM 133.2878125-5.2L 133.2878125-5.2L 133.2878125-6.82Q 132.5578125-7.51  131.6578125-7.99Q 130.7478125-8.46  129.9678125-8.46L 129.9678125-8.46Q 128.3078125-8.46  127.6278125-7.9Q 126.9478125-7.35  126.9478125-6.11L 126.9478125-6.11Q 126.9478125-4.62  127.5378125-3.91Q 128.1178125-3.21  129.7178125-3.21L 129.7178125-3.21Q 130.6178125-3.21  131.5978125-3.79Q 132.5778125-4.37  133.2878125-5.2ZM 144.3071875-25.31L 144.3071875-29.06L 153.2071875-29.06L 153.2071875-3.75L 155.5571875-3.75L 155.5571875 0L 144.3071875 0L 144.3071875-3.75L 146.6471875-3.75L 146.6471875-25.31L 144.3071875-25.31ZM 157.4321875-25.31L 157.4321875-29.06L 166.3321875-29.06L 166.3321875-3.75L 168.6821875-3.75L 168.6821875 0L 157.4321875 0L 157.4321875-3.75L 159.7721875-3.75L 159.7721875-25.31L 157.4321875-25.31ZM 171.1771875 7.23L 171.1771875 7.23Q 170.5571875 6.29  170.5571875 5.16L 170.5571875 5.16Q 170.5571875 3.6  171.6471875 2.5Q 172.7471875 1.41  174.3071875 1.41Q 175.8671875 1.41  176.9571875 2.5Q 178.0571875 3.6  178.0571875 5.16L 178.0571875 5.16Q 178.0571875 5.48  177.9971875 5.79L 177.9971875 5.79Q 178.0471875 5.8  178.0771875 5.8L 178.0771875 5.8Q 178.9171875 5.8  180.1371875 3.01L 180.1371875 3.01L 181.0171875 1L 172.7571875-17.81L 170.5571875-17.81L 170.5571875-21.56L 183.6771875-21.56L 183.6771875-17.81L 179.8271875-17.81L 183.5371875-9.38Q 184.2571875-7.71  184.5671875-6.56L 184.5671875-6.56Q 184.8871875-7.71  185.5971875-9.38L 185.5971875-9.38L 189.3071875-17.81L 186.0271875-17.81L 186.0271875-21.56L 195.8671875-21.56L 195.8671875-17.81L 193.3871875-17.81L 185.5571875 0Q 184.9471875 1.38  184.4571875 2.38Q 183.9771875 3.39  183.3671875 4.42Q 182.7671875 5.46  182.2071875 6.18Q 181.6371875 6.89  180.9271875 7.54Q 180.2271875 8.18  179.4571875 8.56Q 178.6971875 8.94  177.7771875 9.16Q 176.8471875 9.38  175.7771875 9.38L 175.7771875 9.38Q 174.7871875 9.38  174.0271875 9.22Q 173.2571875 9.06  172.7271875 8.75Q 172.1971875 8.44  171.8471875 8.08Q 171.4971875 7.72  171.1771875 7.23Z" />
  <path text="Fit" fill="#333747" space="preserve" text-anchor="start" offset="0" font-scale="contain" font-size="48" font-family="Orelega One" transform="matrix(1.2622667597267283, 0, 0, 1.2622667597267283, 199.10068920867826, 306.4239915978018)" data-fl-textpath="" font-weight="400" font-style="normal" d="M 12.66-3.75L 19.22-3.75L 19.22 0L 1.41 0L 1.41-3.75L 5.16-3.75L 5.16-25.31L 1.41-25.31L 1.41-29.06L 26.72-29.06L 26.72-19.69L 22.5-19.69L 22.5-21.56Q 22.5-22.14  22.4-22.75Q 22.3-23.36  22.1-23.95Q 21.89-24.55  21.5-24.93Q 21.12-25.31  20.63-25.31L 20.63-25.31L 12.66-25.31L 12.66-15L 16.88-15L 16.88-19.22L 20.63-19.22L 20.63-7.03L 16.88-7.03L 16.88-11.25L 12.66-11.25L 12.66-3.75ZM 32.9725-24.06Q 31.8725-25.16  31.8725-26.72Q 31.8725-28.28  32.9725-29.37Q 34.0625-30.47  35.6225-30.47Q 37.1825-30.47  38.2825-29.37Q 39.3725-28.28  39.3725-26.72Q 39.3725-25.16  38.2825-24.06Q 37.1825-22.97  35.6225-22.97Q 34.0625-22.97  32.9725-24.06ZM 30.0025-17.81L 30.0025-21.56L 38.9025-21.56L 38.9025-3.75L 41.2525-3.75L 41.2525 0L 30.0025 0L 30.0025-3.75L 32.3425-3.75L 32.3425-17.81L 30.0025-17.81ZM 49.6875-26.25L 49.6875-26.25L 52.0275-26.25L 52.0275-21.56L 58.5975-21.56L 58.5975-17.81L 52.0275-17.81L 52.0275-5.63Q 52.0275-4.83  52.4775-4.29Q 52.9375-3.75  53.9075-3.75L 53.9075-3.75Q 54.9975-3.75  55.7575-4.47Q 56.5175-5.19  56.7175-6.56L 56.7175-6.56L 59.5275-6.09Q 59.3575-4.72  58.8575-3.56Q 58.3575-2.39  57.5675-1.48Q 56.7675-0.57  55.5875-0.05Q 54.4075 0.47  52.9675 0.47L 52.9675 0.47Q 49.4675 0.47  47.4675-1.17Q 45.4675-2.8  45.4675-5.63L 45.4675-5.63L 45.4675-17.81L 43.1275-17.81L 43.1275-21.56L 43.5975-21.56Q 45.3975-21.56  46.7775-22.59Q 48.167500000000004-23.63  49.6875-26.25Z" />
  <g />
  <g transform="matrix(1.9132577262938886, 0, 0, 1.9132577262938886, 45.207723332919365, 137.64789889582823)" stroke="url(#go_el7hgn8ce_129)">
    <path d="M51.459,20.763c-2.718-0.665-5.471,0.827-6.806,3.213c-1.43,2.554,0.258,4.837,2.959,5.182     c2.702,0.345,5.17-1.516,6.134-3.962c1.102-2.794-1.3-4.398-3.809-4.455c-0.807-0.019-0.805,1.231,0,1.25     c1.997,0.045,3.421,1.082,2.489,3.144c-0.745,1.647-2.473,2.826-4.28,2.824c-2.229-0.002-3.379-1.628-2.295-3.565     c1.011-1.805,3.253-2.92,5.275-2.425C51.91,22.159,52.242,20.954,51.459,20.763L51.459,20.763z" transform="matrix(1, 0, 0, 1, 0, 0)" stroke="url(#go_el7hgn8ce_129)" />
    <path d="M47.884,28.586c1.08,9.648,2.199,21.658-0.506,31.048c-2.646,9.182-3.83,18.8-2.715,28.366c0.092,0.791,1.343,0.8,1.25,0     c-0.562-4.818-0.333-9.59,0.02-14.418c0.433-5.935,2.143-11.094,3.483-16.805c0.91-3.875,0.401-8.242,0.419-12.188     c0.023-5.348-0.105-10.686-0.701-16.003C49.045,27.794,47.794,27.785,47.884,28.586L47.884,28.586z" transform="matrix(1, 0, 0, 1, 0, 0)" stroke="url(#go_el7hgn8ce_129)" />
    <path d="M48.278,56.893c3.703,5.244,4.778,11.372,6.093,17.521c0.71,3.32,3.007,9.953,0.837,12.884     c-0.48,0.648,0.605,1.271,1.08,0.631c2.252-3.042,0.19-8.977-0.445-12.283c-1.301-6.764-2.434-13.646-6.484-19.383     C48.897,55.609,47.813,56.232,48.278,56.893L48.278,56.893z" transform="matrix(1, 0, 0, 1, 0, 0)" stroke="url(#go_el7hgn8ce_129)" />
    <path d="M49.29,37.271c4.805-1.692,7.894-6.233,11.395-9.682c3.604-3.55,7.797-6.942,10.132-11.525     c0.365-0.717-0.714-1.35-1.08-0.631c-2.128,4.177-5.907,7.406-9.246,10.605c-3.556,3.408-6.735,8.338-11.532,10.027     C48.203,36.331,48.528,37.539,49.29,37.271L49.29,37.271z" transform="matrix(1, 0, 0, 1, 0, 0)" stroke="url(#go_el7hgn8ce_129)" />
    <path d="M49.124,36.043c-6.127-0.788-11.431-3.589-15.782-7.944c-3.114-3.117-3.96-8.294-5.633-12.242     c-0.314-0.74-1.391-0.103-1.08,0.631c2.188,5.163,3.315,10.273,7.599,14.177c4.135,3.769,9.401,5.922,14.896,6.629     C49.922,37.396,49.912,36.145,49.124,36.043L49.124,36.043z" transform="matrix(1, 0, 0, 1, 0, 0)" stroke="url(#go_el7hgn8ce_129)" />
    <path d="M20.882,17.535c10.189-1.057,19.771-2.261,30.041-1.563c8.069,0.549,17.264,1.577,25.137-0.783     c0.771-0.23,0.442-1.438-0.332-1.205c-8.328,2.496-18.145,1.191-26.671,0.612c-9.591-0.652-18.666,0.703-28.175,1.689     C20.088,16.367,20.08,17.618,20.882,17.535L20.882,17.535z" transform="matrix(1, 0, 0, 1, 0, 0)" stroke="url(#go_el7hgn8ce_129)" />
    <path d="M74.493,8c0.319,2.646,1.258,5.114,1.767,7.721c0.543,2.784,0.307,5.602,1.162,8.329c0.24,0.767,1.447,0.439,1.205-0.332     c-0.758-2.416-0.564-4.84-0.985-7.296c-0.487-2.846-1.553-5.554-1.898-8.422C75.648,7.21,74.396,7.201,74.493,8L74.493,8z" transform="matrix(1, 0, 0, 1, 0, 0)" stroke="url(#go_el7hgn8ce_129)" />
    <path d="M75.7,15.404c1.588,0.012,3.267,0.235,4.814-0.216c0.772-0.225,0.443-1.432-0.332-1.205     c-1.429,0.416-3.015,0.182-4.482,0.171C74.894,14.148,74.895,15.398,75.7,15.404L75.7,15.404z" transform="matrix(1, 0, 0, 1, 0, 0)" stroke="url(#go_el7hgn8ce_129)" />
    <path d="M78.196,11.266c0.462,2.797,0.551,6.368,2,8.866c0.404,0.696,1.485,0.067,1.08-0.631     c-0.675-1.162-0.843-2.704-1.096-4.002c-0.295-1.516-0.527-3.043-0.779-4.565C79.271,10.14,78.065,10.478,78.196,11.266     L78.196,11.266z" transform="matrix(1, 0, 0, 1, 0, 0)" stroke="url(#go_el7hgn8ce_129)" />
    <path d="M19.504,10.49c1.644,4.704,3.141,10.467,1.55,15.358c-0.25,0.769,0.957,1.096,1.205,0.332     c1.656-5.091,0.157-11.136-1.55-16.022C20.445,9.402,19.237,9.728,19.504,10.49L19.504,10.49z" transform="matrix(1, 0, 0, 1, 0, 0)" stroke="url(#go_el7hgn8ce_129)" />
    <path d="M20.688,16.285c-1.431,0.025-2.831,0.362-4.262,0.388c-0.805,0.015-0.807,1.265,0,1.25     c1.431-0.025,2.831-0.362,4.262-0.388C21.492,17.521,21.494,16.271,20.688,16.285L20.688,16.285z" transform="matrix(1, 0, 0, 1, 0, 0)" stroke="url(#go_el7hgn8ce_129)" />
    <path d="M14.661,11.847c1.066,3.494,1.728,7.306,3.743,10.415c0.438,0.674,1.52,0.048,1.08-0.631     c-1.955-3.014-2.584-6.727-3.618-10.116C15.632,10.746,14.425,11.074,14.661,11.847L14.661,11.847z" transform="matrix(1, 0, 0, 1, 0, 0)" stroke="url(#go_el7hgn8ce_129)" />
  </g>
</svg>