<?xml version="1.0" standalone="no"?>
<!DOCTYPE svg PUBLIC "-//W3C//DTD SVG 20010904//EN"
 "http://www.w3.org/TR/2001/REC-SVG-20010904/DTD/svg10.dtd">
<svg version="1.0" xmlns="http://www.w3.org/2000/svg"
 width="198.000000pt" height="198.000000pt" viewBox="0 0 198.000000 198.000000"
 preserveAspectRatio="xMidYMid meet">
<metadata>
Created by potrace 1.14, written by Peter Selinger 2001-2017
</metadata>
<g transform="translate(0.000000,198.000000) scale(0.100000,-0.100000)"
fill="#000000" stroke="none">
<path d="M1147 1512 c-72 -13 -135 -26 -138 -30 -4 -4 0 -142 10 -307 l16
-300 45 3 c25 1 62 5 83 8 l39 6 -7 133 -7 133 56 7 c31 4 58 10 60 14 3 4 2
25 -1 47 l-5 40 -58 -6 -59 -6 -3 83 -3 82 93 17 c51 9 95 20 98 25 3 5 2 25
-2 44 -6 34 -8 35 -45 33 -22 -2 -99 -13 -172 -26z m139 -17 c4 -14 4 -28 2
-30 -3 -3 -47 -13 -98 -22 l-94 -18 3 -90 c1 -50 6 -94 10 -98 4 -4 29 -3 56
3 26 6 49 9 50 8 2 -2 6 -17 9 -34 7 -31 6 -32 -40 -39 -80 -12 -76 -3 -72
-149 l3 -131 -36 -3 -36 -3 -12 258 c-6 142 -14 274 -17 294 l-5 36 98 17 c54
10 103 19 108 21 6 2 22 4 37 4 22 1 29 -5 34 -24z"/>
<path d="M890 1464 c-14 -2 -85 -14 -157 -26 l-133 -21 0 -56 c0 -76 19 -465
26 -518 l5 -42 47 5 c26 3 62 7 81 10 l33 5 -3 132 -4 131 55 10 55 11 0 45 0
45 -45 -3 c-25 -2 -53 -5 -62 -8 -16 -5 -18 3 -18 80 0 96 -14 84 123 107 l68
11 -3 42 c-3 43 -11 48 -68 40z m-10 -44 c0 -33 2 -32 -115 -53 l-70 -12 -3
-75 c-2 -41 0 -85 3 -98 5 -22 10 -23 48 -17 23 4 50 9 60 11 14 4 17 -1 17
-30 0 -37 6 -33 -90 -52 l-30 -6 7 -133 6 -132 -36 -5 c-35 -4 -36 -2 -41 32
-8 51 -30 549 -25 554 6 6 208 43 242 45 24 1 27 -3 27 -29z"/>
<path d="M330 555 c0 -70 4 -115 10 -115 6 0 10 25 10 55 0 54 0 55 30 55 17
0 30 5 30 10 0 6 -13 10 -30 10 -28 0 -30 2 -30 40 l0 40 45 0 c25 0 45 5 45
10 0 6 -25 10 -55 10 l-55 0 0 -115z"/>
<path d="M1080 555 c0 -96 3 -115 15 -115 12 0 15 19 15 115 0 96 -3 115 -15
115 -12 0 -15 -19 -15 -115z"/>
<path d="M1140 555 c0 -96 3 -115 15 -115 12 0 15 19 15 115 0 96 -3 115 -15
115 -12 0 -15 -19 -15 -115z"/>
<path d="M1392 558 c2 -78 7 -113 16 -116 9 -3 12 12 12 52 0 53 1 56 25 56
14 0 25 5 25 10 0 6 -11 10 -25 10 -22 0 -25 4 -25 40 l0 40 40 0 c22 0 40 5
40 10 0 6 -25 10 -55 10 l-56 0 3 -112z"/>
<path d="M1520 655 c0 -8 7 -15 15 -15 8 0 15 7 15 15 0 8 -7 15 -15 15 -8 0
-15 -7 -15 -15z"/>
<path d="M730 631 c0 -11 -6 -22 -12 -25 -10 -5 -10 -7 0 -12 8 -4 12 -29 12
-74 0 -61 2 -69 21 -75 28 -9 38 3 16 19 -23 18 -25 126 -2 126 8 0 15 5 15
10 0 6 -7 10 -15 10 -8 0 -15 9 -15 20 0 11 -4 20 -10 20 -5 0 -10 -9 -10 -19z"/>
<path d="M1600 631 c0 -11 -6 -22 -12 -24 -10 -4 -10 -7 -1 -14 7 -5 13 -39
15 -78 3 -64 5 -70 26 -73 25 -4 30 15 7 24 -11 5 -15 22 -15 65 0 46 3 59 15
59 8 0 15 5 15 10 0 6 -7 10 -15 10 -8 0 -15 9 -15 20 0 11 -4 20 -10 20 -5 0
-10 -9 -10 -19z"/>
<path d="M466 594 c-9 -8 -16 -20 -16 -25 0 -15 22 -10 35 8 16 21 45 10 45
-17 0 -15 -7 -20 -28 -20 -35 0 -52 -16 -52 -51 0 -36 17 -48 68 -47 l42 0 0
62 c0 70 -18 106 -55 106 -13 0 -31 -7 -39 -16z m64 -98 c0 -34 -43 -50 -54
-20 -8 21 11 44 35 44 13 0 19 -7 19 -24z"/>
<path d="M602 598 c-17 -17 -16 -132 2 -147 20 -17 67 -10 80 11 15 25 -1 34
-24 13 -28 -25 -50 -5 -50 45 0 69 16 86 52 53 22 -19 37 -9 22 15 -13 21 -65
27 -82 10z"/>
<path d="M810 536 c0 -84 7 -95 63 -93 l37 1 0 83 c0 49 -4 83 -10 83 -6 0
-10 -26 -10 -58 0 -69 -18 -104 -44 -83 -12 10 -16 31 -16 77 0 36 -4 64 -10
64 -6 0 -10 -31 -10 -74z"/>
<path d="M962 598 c-14 -14 -16 -38 -2 -38 5 0 13 7 18 17 12 21 42 10 42 -17
0 -15 -7 -20 -24 -20 -45 0 -68 -40 -46 -80 8 -15 20 -19 55 -18 l45 2 0 64
c0 35 -5 72 -10 83 -12 22 -59 26 -78 7z m63 -98 c-2 -11 -7 -25 -10 -30 -9
-15 -35 -12 -41 5 -10 25 4 45 30 45 19 0 24 -4 21 -20z"/>
<path d="M1190 608 c0 -2 9 -37 20 -78 24 -93 25 -116 3 -129 -10 -5 -14 -13
-10 -17 20 -20 44 19 69 112 32 117 32 114 15 114 -9 0 -19 -25 -28 -67 l-15
-68 -13 68 c-9 44 -18 67 -27 67 -8 0 -14 -1 -14 -2z"/>
<path d="M1526 602 c-3 -5 -3 -17 -1 -28 2 -10 4 -45 4 -76 1 -32 6 -58 11
-58 6 0 10 35 10 85 0 75 -8 102 -24 77z"/>
</g>
</svg>
